<svg id="图层_1" data-name="图层 1" xmlns="http://www.w3.org/2000/svg" viewBox="0 0 235.09 72.34"><defs><style>.cls-1{fill:#00a0e9;}.cls-2{fill:#258dc5;}.cls-3{fill:#efc2c3;}.cls-4{fill:#fff;}.cls-5{fill:#9f9f9f;}</style></defs><title>logo</title><path class="cls-1" d="M365.86,525.92q4.79,6.43,8.24,12.19c0.53,0.44.71,0.81,0.53,1.11a1,1,0,0,1-1.33-.22q-4-6.2-8-11.74a54.49,54.49,0,0,1-14.62,18.17,0.94,0.94,0,0,1-1.33-.22,0.84,0.84,0,0,1,.53-1.11,51.66,51.66,0,0,0,14.36-18.17q-5.58-7.31-12.5-14.85a1,1,0,0,1-.27-1.11,1.55,1.55,0,0,1,1.33.22,188.09,188.09,0,0,1,12.23,14.4,71.88,71.88,0,0,0,5.32-21.94H352.57q-1.6,0-1.6-.66t1.6-.67h19.15v1.11A67.59,67.59,0,0,1,365.86,525.92Zm38.82-20.83q1.33,0,1.33.44,0,0.67-1.33.66H397v39.44q0,3.54-4.25,3.54H382.35a0.78,0.78,0,0,1-1.06-.44,0.84,0.84,0,0,1,.8-0.66l10.1,0.22q3.19,0,3.19-3.1v-39H376.5a0.65,0.65,0,0,1-.8-0.66q0-.44.8-0.44h18.88V494.24q0-.44.8-0.44t0.8,0.44v10.86h7.71Zm-26.86,10.41-0.53-.66L381,512q0.8-.44,1.06,0a0.65,0.65,0,0,1-.27.89l-3.19,2q0.53,0.45,12.76,17.95c0.53,0.59.62,1,.27,1.33l-1.33-.89Q375.43,512.85,377.83,515.51Z" transform="translate(-239.8 -493.79)"/><path class="cls-1" d="M474.09,526.59q0.8,0,.8.44a0.65,0.65,0,0,1-.8.66H457.87v20.83a0.65,0.65,0,0,1-.8.66,0.54,0.54,0,0,1-.53-0.66V527.7H437.4q-1.33,16.4-10.64,21.05a0.75,0.75,0,0,1-1.06,0,0.8,0.8,0,0,1,0-.89q9-4.21,10.37-20.17H419.58c-0.89,0-1.33-.22-1.33-0.66s0.44-.44,1.33-0.44h16.49V519.5c0-.74.17-1.11,0.53-1.11,0.53,0,.8.37,0.8,1.11v7.09h19.15V519.5c0-.74.17-1.11,0.53-1.11,0.53,0,.8.37,0.8,1.11v7.09h16.22Zm-50.52-32.79q-0.8,0-.8.44a0.65,0.65,0,0,0,.8.66h22.6v9.53H427.29c-0.71,0-1.06.15-1.06,0.44s0.35,0.67,1.06.67h18.88v11.08H421.44c-0.71,0-1.06.15-1.06,0.44s0.35,0.67,1.06.67H472.5a0.65,0.65,0,0,0,.8-0.67c0-.29-0.27-0.44-0.8-0.44h-25V505.54h18.88c0.71,0,1.06-.22,1.06-0.67s-0.36-.44-1.06-0.44H447.5V494.9h22.6c0.71,0,1.06-.22,1.06-0.66s-0.36-.44-1.06-0.44H423.57Z" transform="translate(-239.8 -493.79)"/><path class="cls-2" d="M344.15,561.22l2.11-.69v-2.74h-1.92V556.9h1.92v-2.25h0.94v2.25h1.75v0.89H347.2v2.42l1.9-.67a8.9,8.9,0,0,0,.09.94l-2,.71v3.45a1.1,1.1,0,0,1-1.22,1.28h-1.35q-0.06-.49-0.14-1a9.06,9.06,0,0,0,1.25.08,0.48,0.48,0,0,0,.52-0.56v-2.92l-1.84.68Zm4.92-5.7h6.76v0.89h-2v7.93a1.32,1.32,0,0,1-1.46,1.5q-0.76,0-2,0a8.23,8.23,0,0,0-.19-1.07q1.32,0.09,2,.09a0.69,0.69,0,0,0,.73-0.82v-7.63h-3.76v-0.89Z" transform="translate(-239.8 -493.79)"/><path class="cls-2" d="M355.75,559.71h3.06V556.3h-2.54v-0.93h10.51v0.93h-2.39v3.41h2.89v0.93h-2.89V566h-1v-5.34h-3.66a7.13,7.13,0,0,1-.62,3.19,6.28,6.28,0,0,1-2.64,2.31,9.3,9.3,0,0,0-.67-0.82,5.76,5.76,0,0,0,2.39-1.91,5.44,5.44,0,0,0,.57-2.77h-3.05v-0.93Zm4,0h3.66V556.3h-3.66v3.41Z" transform="translate(-239.8 -493.79)"/><path class="cls-2" d="M367.64,557.25l0.75,0.09q-0.13,1.42-.42,3l-0.76-.16A25,25,0,0,0,367.64,557.25Zm1.15-2.67h0.83V557l0.45-.32q0.6,0.7,1.07,1.3l-0.66.48q-0.36-.53-0.86-1.18V566h-0.83V554.58Zm1.86,4h3.59v-0.81h-3v-0.74h3v-0.79H371v-0.74h3.28v-1.05h0.89v1.05h3.52v0.74h-3.52v0.79h3.19v0.74h-3.19v0.81h3.76v0.74h-8.24V558.6ZM372.3,566h-0.89v-5.94H378v4.52a1.13,1.13,0,0,1-1.18,1.32h-2q-0.06-.37-0.18-0.9,1.11,0.07,1.82.07a0.54,0.54,0,0,0,.64-0.56v-0.63h-4.8V566Zm4.8-5.19h-4.8v0.81h4.8V560.8Zm-4.8,2.34h4.8v-0.81h-4.8v0.81Z" transform="translate(-239.8 -493.79)"/><path class="cls-2" d="M378.72,565a10,10,0,0,0,.91-4.7l0.76,0a17.09,17.09,0,0,1-.09,1.95,5.33,5.33,0,0,0,.79,1.18v-4H379v-0.75h1.76V557h-1.5v-0.75h1.5v-1.69h0.8v1.69h1.32V557h-1.32v1.69h1.54v0.75h-1.18v1.66H383v0.75h-1.08v2.29a4.41,4.41,0,0,0,2.45.69q2.74,0,6.07,0a9.65,9.65,0,0,0-.33.91q-3.77,0-6.06,0a4.12,4.12,0,0,1-3.87-2.23,8.39,8.39,0,0,1-1,2.66Zm3.9-2.53,0.79-.11v-6.63h-0.66V555H387v0.73h-0.66v6.13l0.8-.15q0,0.48,0,.81l-0.83.14v1.89H385.6v-1.75q-1.63.28-2.81,0.52Zm1.56-5.07h1.42v-1.66h-1.42v1.66Zm0,2.34h1.42v-1.66h-1.42v1.66ZM385.6,562V560.4h-1.42v1.82Zm1.39-5.34v-0.77h2.93v0.79a18.14,18.14,0,0,1-.84,4.41q0.54,1.4,1,2.78l-0.73.38q-0.35-1.05-.7-2.05a11.1,11.1,0,0,1-1.39,2.36q-0.23-.23-0.62-0.57a9.91,9.91,0,0,0,1.62-2.85q-0.67-1.82-1.37-3.39l0.71-.27q0.54,1.25,1,2.49a17.19,17.19,0,0,0,.52-3.29H387Z" transform="translate(-239.8 -493.79)"/><path class="cls-2" d="M391.56,558l0.94,0.26q-0.54,2.5-1.29,4.85l-0.94-.36A35.81,35.81,0,0,0,391.56,558Zm1.72-1.25h1v6.87a0.89,0.89,0,0,0,.95,1.07h2.52a1,1,0,0,0,1.14-.84q0.13-.74.22-1.77,0.49,0.2,1,.38-0.18,1.23-.33,1.84a1.67,1.67,0,0,1-1.85,1.31H395a1.52,1.52,0,0,1-1.69-1.76v-7.09Zm2.58-2.36q1.11,1.85,1.89,3.34l-0.94.5a35.12,35.12,0,0,0-1.77-3.42Zm4,3.25q1,1.89,2.07,4.29l-1,.48q-0.9-2.27-2-4.36Z" transform="translate(-239.8 -493.79)"/><path class="cls-2" d="M402.68,556.9h0.94V566h-0.94V556.9Zm0.53-1.83,0.67-.6q0.79,0.74,1.65,1.64l-0.76.67Q404,555.86,403.21,555.07Zm3,1.17v-0.89h6.35v8.84a1.45,1.45,0,0,1-1.61,1.68l-1.86,0q-0.06-.4-0.19-1,1.08,0.07,1.86.07a0.77,0.77,0,0,0,.86-0.89v-7.8h-5.41Z" transform="translate(-239.8 -493.79)"/><path class="cls-2" d="M419.77,564.5h-1.15v-1.08h0a2.37,2.37,0,0,1-2.2,1.23,2.41,2.41,0,0,1-2-.88,3.59,3.59,0,0,1-.73-2.36,3.85,3.85,0,0,1,.82-2.58,2.67,2.67,0,0,1,2.14-1,2.05,2.05,0,0,1,1.92,1h0v-4h1.15v9.59Zm-1.14-3.86a1.79,1.79,0,0,0-.51-1.3,1.7,1.7,0,0,0-1.26-.52,1.72,1.72,0,0,0-1.44.68,3,3,0,0,0-.53,1.86,2.66,2.66,0,0,0,.51,1.71,1.65,1.65,0,0,0,1.35.63,1.7,1.7,0,0,0,1.36-.62,2.29,2.29,0,0,0,.53-1.54v-0.9Z" transform="translate(-239.8 -493.79)"/><path class="cls-2" d="M426.82,564.5h-1.14v-3.69q0-2-1.46-2a1.57,1.57,0,0,0-1.24.56,2.1,2.1,0,0,0-.49,1.42v3.7h-1.15V558h1.15v1.07h0a2.34,2.34,0,0,1,2.13-1.22,2,2,0,0,1,1.62.68,3.08,3.08,0,0,1,.56,2v4Z" transform="translate(-239.8 -493.79)"/><path class="cls-2" d="M433.54,564.5h-5.2v-1h2v-6.89l-2.09.6v-1.05l3.23-.94v8.28h2v1Z" transform="translate(-239.8 -493.79)"/><path class="cls-2" d="M440.1,564.5h-5.2v-1h2v-6.89l-2.09.6v-1.05l3.23-.94v8.28h2v1Z" transform="translate(-239.8 -493.79)"/><path class="cls-2" d="M440.88,560.14a6.75,6.75,0,0,1,.8-3.64,2.58,2.58,0,0,1,2.31-1.23q2.88,0,2.88,4.65a6.33,6.33,0,0,1-.81,3.51,2.59,2.59,0,0,1-2.28,1.22,2.42,2.42,0,0,1-2.14-1.15A6.13,6.13,0,0,1,440.88,560.14Zm1.17-.05q0,3.62,1.83,3.62t1.8-3.67q0-3.8-1.77-3.8T442,560.09Z" transform="translate(-239.8 -493.79)"/><path class="cls-2" d="M447.6,563.9a0.74,0.74,0,0,1,.76-0.75,0.75,0.75,0,0,1,.76.75,0.72,0.72,0,0,1-.22.52,0.74,0.74,0,0,1-.55.22,0.72,0.72,0,0,1-.54-0.22A0.73,0.73,0,0,1,447.6,563.9Z" transform="translate(-239.8 -493.79)"/><path class="cls-2" d="M454.81,564.21a3.43,3.43,0,0,1-1.79.45,3,3,0,0,1-2.26-.9,3.26,3.26,0,0,1-.86-2.34,3.59,3.59,0,0,1,.92-2.57,3.24,3.24,0,0,1,2.47-1,3.38,3.38,0,0,1,1.52.32v1.14a2.51,2.51,0,0,0-1.52-.5,2.06,2.06,0,0,0-1.6.68,2.61,2.61,0,0,0-.62,1.82,2.49,2.49,0,0,0,.58,1.75,2,2,0,0,0,1.57.63,2.61,2.61,0,0,0,1.58-.55v1.05Z" transform="translate(-239.8 -493.79)"/><path class="cls-2" d="M455.44,561.33a3.5,3.5,0,0,1,.9-2.53,3.22,3.22,0,0,1,2.43-.93,3,3,0,0,1,2.29.89,4,4,0,0,1-.06,4.95,3.1,3.1,0,0,1-2.37.94,3,3,0,0,1-2.32-.91A3.35,3.35,0,0,1,455.44,561.33Zm1.17,0a2.58,2.58,0,0,0,.57,1.76,1.92,1.92,0,0,0,1.52.64,1.83,1.83,0,0,0,1.5-.63,3.44,3.44,0,0,0,0-3.62,1.82,1.82,0,0,0-1.5-.63,1.89,1.89,0,0,0-1.53.66A2.73,2.73,0,0,0,456.61,561.29Z" transform="translate(-239.8 -493.79)"/><path class="cls-2" d="M472.35,564.5H471.2v-3.72a2.64,2.64,0,0,0-.33-1.51,1.24,1.24,0,0,0-1.08-.45,1.33,1.33,0,0,0-1.08.59,2.24,2.24,0,0,0-.45,1.4v3.69h-1.15v-3.84q0-1.85-1.42-1.85a1.32,1.32,0,0,0-1.09.56,2.29,2.29,0,0,0-.43,1.44v3.69H463V558h1.15v1h0a2.21,2.21,0,0,1,2-1.18,1.92,1.92,0,0,1,1.15.36,1.84,1.84,0,0,1,.69,1,2.32,2.32,0,0,1,2.16-1.32q2.14,0,2.14,2.64v4Z" transform="translate(-239.8 -493.79)"/><path class="cls-3" d="M333.15,562.08l0.08-20-35,.17-0.17-26.83,35.33-.17-0.17-19.5H293.4c-15.3,1.37-27.08,15.21-27.08,32.61s12.49,32.33,27.79,33.7h39Z" transform="translate(-239.8 -493.79)"/><path class="cls-2" d="M260.33,562.21l0.12-46.78H273.1c5.69,0,10.31,6.34,10.31,14.17s-4.6,14.09-10.29,14.09l-9.72,0,0.09,18.45,8.86,0a31.82,31.82,0,0,0,32.28-32.28c0-18.55-14.47-33.58-32.31-33.58l-12.2-.5H239.83l0,66.43h20.53Z" transform="translate(-239.8 -493.79)"/><circle class="cls-4" cx="45.67" cy="35.73" r="14.87"/><circle class="cls-5" cx="45.87" cy="35.37" r="6.33"/></svg>